{
	"asset":{
		"generator":"Khronos glTF Blender I/O v5.1.18",
		"version":"2.0"
	},
	"scene":0,
	"scenes":[
		{
			"name":"Scene",
			"nodes":[
				0,
				1
			]
		}
	],
	"nodes":[
		{
			"mesh":0,
			"name":"Cube",
			"scale":[
				1.3067313432693481,
				0.30197471380233765,
				0.7005646228790283
			]
		},
		{
			"mesh":1,
			"name":"Cylinder",
			"scale":[
				0.1975722461938858,
				0.01514950580894947,
				0.1975722461938858
			],
			"translation":[
				0.23481443524360657,
				0.27782756090164185,
				-0.2754359543323517
			]
		}
	],
	"materials":[
		{
			"doubleSided":true,
			"name":"BedMat",
			"pbrMetallicRoughness":{
				"baseColorTexture":{
					"index":0
				},
				"metallicFactor":0
			}
		},
		{
			"doubleSided":true,
			"name":"trayMat",
			"pbrMetallicRoughness":{
				"baseColorTexture":{
					"index":1
				},
				"metallicFactor":0
			}
		}
	],
	"meshes":[
		{
			"name":"Cube.001",
			"primitives":[
				{
					"attributes":{
						"POSITION":0,
						"NORMAL":1,
						"TEXCOORD_0":2
					},
					"indices":3,
					"material":0
				}
			]
		},
		{
			"name":"Cylinder",
			"primitives":[
				{
					"attributes":{
						"POSITION":4,
						"NORMAL":5,
						"TEXCOORD_0":6
					},
					"indices":7,
					"material":1
				}
			]
		}
	],
	"textures":[
		{
			"sampler":0,
			"source":0
		},
		{
			"sampler":0,
			"source":0
		}
	],
	"images":[
		{
			"mimeType":"image/png",
			"name":"premium-minimalistic-bedroom-scene-showcasing-600nw-2653680623",
			"uri":"Textures/premium-minimalistic-bedroom-scene-showcasing-600nw-2653680623.png"
		}
	],
	"accessors":[
		{
			"bufferView":0,
			"componentType":5126,
			"count":49,
			"max":[
				1,
				1.2692159414291382,
				1
			],
			"min":[
				-1,
				-1,
				-1
			],
			"type":"VEC3"
		},
		{
			"bufferView":1,
			"componentType":5126,
			"count":49,
			"type":"VEC3"
		},
		{
			"bufferView":2,
			"componentType":5126,
			"count":49,
			"type":"VEC2"
		},
		{
			"bufferView":3,
			"componentType":5123,
			"count":168,
			"type":"SCALAR"
		},
		{
			"bufferView":4,
			"componentType":5126,
			"count":45,
			"max":[
				0.9848077297210693,
				1,
				0.9396926164627075
			],
			"min":[
				-0.9848077297210693,
				-1,
				-1
			],
			"type":"VEC3"
		},
		{
			"bufferView":5,
			"componentType":5126,
			"count":45,
			"type":"VEC3"
		},
		{
			"bufferView":6,
			"componentType":5126,
			"count":45,
			"type":"VEC2"
		},
		{
			"bufferView":7,
			"componentType":5123,
			"count":75,
			"type":"SCALAR"
		}
	],
	"bufferViews":[
		{
			"buffer":0,
			"byteLength":588,
			"byteOffset":0,
			"target":34962
		},
		{
			"buffer":0,
			"byteLength":588,
			"byteOffset":588,
			"target":34962
		},
		{
			"buffer":0,
			"byteLength":392,
			"byteOffset":1176,
			"target":34962
		},
		{
			"buffer":0,
			"byteLength":336,
			"byteOffset":1568,
			"target":34963
		},
		{
			"buffer":0,
			"byteLength":540,
			"byteOffset":1904,
			"target":34962
		},
		{
			"buffer":0,
			"byteLength":540,
			"byteOffset":2444,
			"target":34962
		},
		{
			"buffer":0,
			"byteLength":360,
			"byteOffset":2984,
			"target":34962
		},
		{
			"buffer":0,
			"byteLength":150,
			"byteOffset":3344,
			"target":34963
		}
	],
	"samplers":[
		{
			"magFilter":9729,
			"minFilter":9987
		}
	],
	"buffers":[
		{
			"byteLength":3496,
			"uri":"Bed.bin"
		}
	]
}
